<svg width="20" height="22" viewBox="0 0 20 22" fill="none" xmlns="http://www.w3.org/2000/svg">
<path fill-rule="evenodd" clip-rule="evenodd" d="M7.5 4.21155C8.6 4.21155 9.5 3.31155 9.5 2.21155C9.5 1.11155 8.6 0.211548 7.5 0.211548C6.4 0.211548 5.5 1.11155 5.5 2.21155C5.5 3.31155 6.4 4.21155 7.5 4.21155ZM17.51 14.7115H12V16.2115H17.51V17.9615L20 15.4615L17.51 12.9615V14.7115ZM1 21.7115L3.75 7.61155L2 8.36155V11.7115H0V7.01155L5.25 4.86155C5.5 4.76155 5.75 4.71155 6 4.71155C6.7 4.71155 7.35 5.06155 7.7 5.66155L8.65 7.26155C9.55 8.71155 11.15 9.71155 13 9.71155V11.7115C10.8 11.7115 8.85 10.7115 7.55 9.11155L6.95 12.1115L9 14.1615V21.7115H7V15.7115L4.85 13.7115L3.1 21.7115H1Z" fill="#D6E8CE"/>
</svg>
