<svg width="50" height="52" viewBox="0 0 50 52" fill="none" xmlns="http://www.w3.org/2000/svg">
<path d="M35 8.66025L45 25.9808L35 43.3013L15 43.3013L5 25.9808L15 8.66025L35 8.66025Z" fill="#688E74"/>
<path d="M12.3008 23.6558L13.1549 23.9311C13.0239 24.4151 12.8057 24.7751 12.5001 25.011C12.1966 25.245 11.8107 25.362 11.3425 25.362C10.7631 25.362 10.287 25.1613 9.91398 24.7599C9.54099 24.3566 9.35449 23.806 9.35449 23.1082C9.35449 22.3701 9.54198 21.7973 9.91696 21.3899C10.2919 20.9805 10.785 20.7758 11.396 20.7758C11.9297 20.7758 12.3633 20.9362 12.6966 21.2568C12.895 21.4464 13.0438 21.7187 13.143 22.0736L12.271 22.2854C12.2194 22.0555 12.1113 21.8739 11.9466 21.7408C11.7839 21.6077 11.5855 21.5412 11.3514 21.5412C11.028 21.5412 10.7651 21.6592 10.5628 21.8951C10.3624 22.1311 10.2622 22.5133 10.2622 23.0417C10.2622 23.6023 10.3614 24.0016 10.5598 24.2396C10.7582 24.4776 11.0161 24.5966 11.3335 24.5966C11.5677 24.5966 11.769 24.521 11.9377 24.3697C12.1063 24.2184 12.2273 23.9805 12.3008 23.6558Z" fill="white" fill-opacity="0.9"/>
<path d="M13.9167 25.2863V20.8514H14.7976V22.597H16.5237V20.8514H17.4046V25.2863H16.5237V23.3472H14.7976V25.2863H13.9167Z" fill="white" fill-opacity="0.9"/>
<path d="M22.2526 25.2863H21.2943L20.9134 24.2789H19.1694L18.8093 25.2863H17.8748L19.5742 20.8514H20.5056L22.2526 25.2863ZM20.6306 23.5317L20.0295 21.8861L19.4402 23.5317H20.6306Z" fill="white" fill-opacity="0.9"/>
<path d="M22.7317 25.2863V20.8514H23.5888L25.3744 23.8131V20.8514H26.1928V25.2863H25.3089L23.5501 22.3943V25.2863H22.7317Z" fill="white" fill-opacity="0.9"/>
<path d="M28.1094 25.2863V21.6017H26.8148V20.8514H30.2819V21.6017H28.9903V25.2863H28.1094Z" fill="white" fill-opacity="0.9"/>
<path d="M30.8265 25.2863V20.8514H31.7074V25.2863H30.8265Z" fill="white" fill-opacity="0.9"/>
<path d="M32.5496 25.2863V20.8514H35.7845V21.6017H33.4305V22.5849H35.6209V23.3321H33.4305V24.5391H35.8679V25.2863H32.5496Z" fill="white" fill-opacity="0.9"/>
<path d="M36.6178 25.2863V20.8514H38.4719C38.9381 20.8514 39.2764 20.8918 39.4867 20.9725C39.699 21.0511 39.8686 21.1923 39.9956 21.396C40.1226 21.5997 40.1861 21.8326 40.1861 22.0948C40.1861 22.4276 40.0899 22.7028 39.8974 22.9207C39.705 23.1364 39.4173 23.2726 39.0344 23.3291C39.2248 23.442 39.3816 23.566 39.5046 23.7011C39.6296 23.8363 39.7972 24.0763 40.0075 24.4211L40.5402 25.2863H39.4867L38.8498 24.3213C38.6237 23.9764 38.4689 23.7596 38.3856 23.6709C38.3023 23.5801 38.214 23.5186 38.1207 23.4864C38.0275 23.4521 37.8797 23.4349 37.6773 23.4349H37.4987V25.2863H36.6178ZM37.4987 22.727H38.1505C38.5731 22.727 38.837 22.7089 38.9421 22.6726C39.0473 22.6363 39.1296 22.5738 39.1891 22.485C39.2486 22.3963 39.2784 22.2854 39.2784 22.1523C39.2784 22.003 39.2387 21.883 39.1594 21.7923C39.082 21.6995 38.9719 21.641 38.829 21.6168C38.7576 21.6067 38.5433 21.6017 38.1862 21.6017H37.4987V22.727Z" fill="white" fill-opacity="0.9"/>
<path d="M16.6908 33.5227H15.4865L15.0077 32.3146H12.816L12.3634 33.5227H11.189L13.3246 28.2043H14.4953L16.6908 33.5227ZM14.6524 31.4186L13.8969 29.445L13.1563 31.4186H14.6524Z" fill="white" fill-opacity="0.9"/>
<path d="M17.0013 31.7922L18.0785 31.6907C18.1433 32.0413 18.2742 32.2989 18.4712 32.4634C18.6707 32.6278 18.9387 32.7101 19.2753 32.7101C19.6319 32.7101 19.8999 32.6375 20.0795 32.4924C20.2615 32.3449 20.3525 32.1732 20.3525 31.9772C20.3525 31.8515 20.3139 31.7451 20.2366 31.658C20.1618 31.5685 20.0296 31.4911 19.8401 31.4258C19.7104 31.3823 19.415 31.3049 18.9537 31.1936C18.3602 31.051 17.9438 30.8756 17.7044 30.6676C17.3678 30.375 17.1995 30.0182 17.1995 29.5974C17.1995 29.3265 17.278 29.0738 17.4351 28.8392C17.5947 28.6022 17.8229 28.422 18.1196 28.2987C18.4188 28.1753 18.7791 28.1136 19.2005 28.1136C19.8887 28.1136 20.4061 28.26 20.7527 28.5526C21.1018 28.8453 21.2851 29.2358 21.3025 29.7244L20.1954 29.7716C20.148 29.4983 20.0458 29.3024 19.8887 29.1838C19.7341 29.0629 19.501 29.0025 19.1893 29.0025C18.8676 29.0025 18.6158 29.0665 18.4338 29.1947C18.3166 29.277 18.258 29.387 18.258 29.5249C18.258 29.6506 18.3128 29.7582 18.4226 29.8477C18.5622 29.9614 18.9013 30.0799 19.4399 30.2033C19.9785 30.3266 20.3762 30.4548 20.633 30.5878C20.8924 30.7184 21.0943 30.8986 21.2389 31.1283C21.3861 31.3557 21.4596 31.6374 21.4596 31.9736C21.4596 32.2784 21.3723 32.5637 21.1978 32.8298C21.0233 33.0958 20.7764 33.2941 20.4572 33.4247C20.1381 33.5529 19.7404 33.617 19.2641 33.617C18.5709 33.617 18.0386 33.4622 17.667 33.1527C17.2955 32.8407 17.0736 32.3872 17.0013 31.7922Z" fill="white" fill-opacity="0.9"/>
<path d="M22.1104 31.7922L23.1876 31.6907C23.2524 32.0413 23.3833 32.2989 23.5803 32.4634C23.7798 32.6278 24.0479 32.7101 24.3845 32.7101C24.741 32.7101 25.0091 32.6375 25.1886 32.4924C25.3706 32.3449 25.4617 32.1732 25.4617 31.9772C25.4617 31.8515 25.423 31.7451 25.3457 31.658C25.2709 31.5685 25.1388 31.4911 24.9492 31.4258C24.8196 31.3823 24.5241 31.3049 24.0628 31.1936C23.4694 31.051 23.053 30.8756 22.8136 30.6676C22.477 30.375 22.3087 30.0182 22.3087 29.5974C22.3087 29.3265 22.3872 29.0738 22.5443 28.8392C22.7039 28.6022 22.932 28.422 23.2287 28.2987C23.528 28.1753 23.8883 28.1136 24.3097 28.1136C24.9979 28.1136 25.5153 28.26 25.8619 28.5526C26.211 28.8453 26.3942 29.2358 26.4117 29.7244L25.3046 29.7716C25.2572 29.4983 25.155 29.3024 24.9979 29.1838C24.8433 29.0629 24.6101 29.0025 24.2985 29.0025C23.9768 29.0025 23.7249 29.0665 23.5429 29.1947C23.4257 29.277 23.3671 29.387 23.3671 29.5249C23.3671 29.6506 23.422 29.7582 23.5317 29.8477C23.6713 29.9614 24.0105 30.0799 24.549 30.2033C25.0876 30.3266 25.4853 30.4548 25.7422 30.5878C26.0015 30.7184 26.2035 30.8986 26.3481 31.1283C26.4952 31.3557 26.5688 31.6374 26.5688 31.9736C26.5688 32.2784 26.4815 32.5637 26.307 32.8298C26.1324 33.0958 25.8856 33.2941 25.5664 33.4247C25.2472 33.5529 24.8495 33.617 24.3733 33.617C23.6801 33.617 23.1477 33.4622 22.7762 33.1527C22.4046 32.8407 22.1827 32.3872 22.1104 31.7922Z" fill="white" fill-opacity="0.9"/>
<path d="M27.4664 33.5227V28.2043H28.5735V33.5227H27.4664Z" fill="white" fill-opacity="0.9"/>
<path d="M29.3515 31.7922L30.4287 31.6907C30.4935 32.0413 30.6244 32.2989 30.8214 32.4634C31.0209 32.6278 31.2889 32.7101 31.6255 32.7101C31.9821 32.7101 32.2502 32.6375 32.4297 32.4924C32.6117 32.3449 32.7027 32.1732 32.7027 31.9772C32.7027 31.8515 32.6641 31.7451 32.5868 31.658C32.512 31.5685 32.3798 31.4911 32.1903 31.4258C32.0607 31.3823 31.7652 31.3049 31.3039 31.1936C30.7104 31.051 30.294 30.8756 30.0547 30.6676C29.718 30.375 29.5497 30.0182 29.5497 29.5974C29.5497 29.3265 29.6283 29.0738 29.7854 28.8392C29.9449 28.6022 30.1731 28.422 30.4698 28.2987C30.769 28.1753 31.1293 28.1136 31.5507 28.1136C32.2389 28.1136 32.7563 28.26 33.1029 28.5526C33.452 28.8453 33.6353 29.2358 33.6528 29.7244L32.5456 29.7716C32.4983 29.4983 32.396 29.3024 32.2389 29.1838C32.0844 29.0629 31.8512 29.0025 31.5395 29.0025C31.2179 29.0025 30.966 29.0665 30.784 29.1947C30.6668 29.277 30.6082 29.387 30.6082 29.5249C30.6082 29.6506 30.6631 29.7582 30.7728 29.8477C30.9124 29.9614 31.2515 30.0799 31.7901 30.2033C32.3287 30.3266 32.7264 30.4548 32.9833 30.5878C33.2426 30.7184 33.4445 30.8986 33.5892 31.1283C33.7363 31.3557 33.8098 31.6374 33.8098 31.9736C33.8098 32.2784 33.7226 32.5637 33.548 32.8298C33.3735 33.0958 33.1266 33.2941 32.8075 33.4247C32.4883 33.5529 32.0906 33.617 31.6143 33.617C30.9211 33.617 30.3888 33.4622 30.0173 33.1527C29.6457 32.8407 29.4238 32.3872 29.3515 31.7922Z" fill="white" fill-opacity="0.9"/>
<path d="M35.9754 33.5227V29.104H34.3484V28.2043H38.7058V29.104H37.0825V33.5227H35.9754Z" fill="white" fill-opacity="0.9"/>
</svg>
