<svg width="18" height="20" viewBox="0 0 18 20" fill="none" xmlns="http://www.w3.org/2000/svg">
<path fill-rule="evenodd" clip-rule="evenodd" d="M15.8766 9.96153C15.8766 10.2732 15.8491 10.5665 15.8124 10.8599L17.7466 12.3724C17.9207 12.5099 17.9666 12.7574 17.8566 12.959L16.0232 16.1307C15.9407 16.2774 15.7849 16.3599 15.6291 16.3599C15.5741 16.3599 15.5191 16.3507 15.4641 16.3324L13.1816 15.4157C12.7049 15.7732 12.1916 16.0849 11.6324 16.314L11.2841 18.7432C11.2566 18.9632 11.0641 19.1282 10.8349 19.1282H7.16823C6.93906 19.1282 6.74656 18.9632 6.71906 18.7432L6.37073 16.314C5.81156 16.0849 5.29823 15.7824 4.82156 15.4157L2.53906 16.3324C2.49323 16.3507 2.43823 16.3599 2.38323 16.3599C2.21823 16.3599 2.06239 16.2774 1.97989 16.1307L0.146562 12.959C0.0365618 12.7574 0.0823951 12.5099 0.256562 12.3724L2.19073 10.8599C2.15406 10.5665 2.12656 10.264 2.12656 9.96153C2.12656 9.65903 2.15406 9.35653 2.19073 9.0632L0.256562 7.55069C0.0823951 7.41319 0.0273951 7.16569 0.146562 6.96403L1.97989 3.79236C2.06239 3.64569 2.21823 3.56319 2.37406 3.56319C2.42906 3.56319 2.48406 3.57236 2.53906 3.59069L4.82156 4.50736C5.29823 4.14986 5.81156 3.83819 6.37073 3.60903L6.71906 1.17986C6.74656 0.959861 6.93906 0.794861 7.16823 0.794861H10.8349C11.0641 0.794861 11.2566 0.959861 11.2841 1.17986L11.6324 3.60903C12.1916 3.83819 12.7049 4.14069 13.1816 4.50736L15.4641 3.59069C15.5099 3.57236 15.5649 3.56319 15.6199 3.56319C15.7849 3.56319 15.9407 3.64569 16.0232 3.79236L17.8566 6.96403C17.9666 7.16569 17.9207 7.41319 17.7466 7.55069L15.8124 9.0632C15.8491 9.35653 15.8766 9.64986 15.8766 9.96153ZM14.0432 9.96153C14.0432 9.76903 14.0341 9.57653 13.9974 9.29236L13.8691 8.25653L14.6849 7.61486L15.6657 6.8357L15.0241 5.72653L13.8599 6.19403L12.8882 6.5882L12.0541 5.94653C11.6874 5.67153 11.3207 5.4607 10.9266 5.2957L9.9549 4.90153L9.80823 3.8657L9.63406 2.6282H8.3599L8.17656 3.8657L8.0299 4.90153L7.05823 5.2957C6.6824 5.45153 6.30656 5.67153 5.9124 5.96486L5.0874 6.5882L4.13406 6.2032L2.9699 5.7357L2.32823 6.84486L3.31823 7.61486L4.13406 8.25653L4.00573 9.29236C3.97823 9.56736 3.9599 9.7782 3.9599 9.96153C3.9599 10.1449 3.97823 10.3557 4.00573 10.6399L4.13406 11.6757L3.31823 12.3174L2.32823 13.0874L2.9699 14.1965L4.13406 13.729L5.10573 13.3349L5.9399 13.9765C6.30656 14.2515 6.67323 14.4624 7.0674 14.6274L8.03906 15.0215L8.18573 16.0574L8.3599 17.2949H9.64323L9.82656 16.0574L9.97323 15.0215L10.9449 14.6274C11.3207 14.4715 11.6966 14.2515 12.0907 13.9582L12.9157 13.3349L13.8691 13.7199L15.0332 14.1874L15.6749 13.0782L14.6849 12.3082L13.8691 11.6665L13.9974 10.6307C14.0249 10.3557 14.0432 10.154 14.0432 9.96153ZM9.00155 6.29486C6.97572 6.29486 5.33489 7.93569 5.33489 9.96153C5.33489 11.9874 6.97572 13.6282 9.00155 13.6282C11.0274 13.6282 12.6682 11.9874 12.6682 9.96153C12.6682 7.93569 11.0274 6.29486 9.00155 6.29486ZM7.16823 9.96153C7.16823 10.9699 7.99323 11.7949 9.00156 11.7949C10.0099 11.7949 10.8349 10.9699 10.8349 9.96153C10.8349 8.9532 10.0099 8.1282 9.00156 8.1282C7.99323 8.1282 7.16823 8.9532 7.16823 9.96153Z" fill="#D6E8CE"/>
</svg>
