<svg width="73" height="82" viewBox="0 0 73 82" fill="none" xmlns="http://www.w3.org/2000/svg">
<path d="M45.562 23.4497H36.1096C24.5034 23.4497 15.0947 32.8584 15.0947 44.4646V53.917C15.0947 65.5232 24.5034 74.9319 36.1096 74.9319H45.562C57.1682 74.9319 66.5769 65.5232 66.5769 53.917V44.4646C66.5769 32.8584 57.1682 23.4497 45.562 23.4497Z" fill="#FE5D19"/>
<path fill-rule="evenodd" clip-rule="evenodd" d="M35.6871 12.6467C48.621 12.6467 59.0862 23.1331 59.0862 36.0458C59.0862 48.9796 48.621 59.4449 35.6871 59.4449C22.7744 59.4449 12.2881 48.9796 12.2881 36.0458C12.2881 23.1331 22.7744 12.6467 35.6871 12.6467V12.6467Z" stroke="#FF9F24" stroke-width="0.991665" stroke-miterlimit="22.9256"/>
<path d="M51.1104 17.7318L59.8665 10.959" stroke="#FF9F24" stroke-width="1.98333" stroke-miterlimit="22.9256" stroke-linecap="round"/>
<path d="M5.57812 52.8409L14.1022 46.2579" stroke="#FF9F24" stroke-width="1.98333" stroke-miterlimit="22.9256" stroke-linecap="round"/>
<path d="M34.5267 12.0771L34.0625 1" stroke="#FF9F24" stroke-width="1.98333" stroke-miterlimit="22.9256" stroke-linecap="round"/>
<path d="M12.0349 32.67L1 31.6572" stroke="#FF9F24" stroke-width="1.98333" stroke-miterlimit="22.9256" stroke-linecap="round"/>
<path d="M19.1874 18.7655L11.4229 10.8533" stroke="#FF9F24" stroke-width="1.98333" stroke-miterlimit="22.9256" stroke-linecap="round"/>
<path d="M51.1526 80.523C62.5491 80.523 71.7877 71.2844 71.7877 59.888C71.7877 48.4916 62.5491 39.2529 51.1526 39.2529C39.7562 39.2529 30.5176 48.4916 30.5176 59.888C30.5176 71.2844 39.7562 80.523 51.1526 80.523Z" stroke="#FF9F24" stroke-width="0.991665" stroke-miterlimit="22.9256"/>
<path fill-rule="evenodd" clip-rule="evenodd" d="M35.6867 59.4449C47.0381 59.4449 56.4905 51.3639 58.6427 40.6455C56.3218 39.7593 53.7898 39.2529 51.1524 39.2529C40.0964 39.2529 31.066 47.9669 30.5596 58.8752C32.2053 59.255 33.9144 59.4449 35.6867 59.4449Z" fill="#444FD9"/>
</svg>
