<svg width="231" height="158" viewBox="0 0 231 158" fill="none" xmlns="http://www.w3.org/2000/svg">
<g filter="url(#filter0_d)">
<g clip-path="url(#clip0)">
<path d="M105.835 141.012L4.38887 140.757C4.18828 106.406 4 72.1386 4 37.7931C30.9941 23.3618 58.0727 14.4972 85.0527 0.0332031L172.206 38.7563L159.727 38.7054L85.0615 6.29191L9.47413 41.2256V78.9818L9.8067 135.126L105.835 135.368V141.012Z" fill="#E5866A"/>
<path d="M61.8752 103.629C55.2309 103.629 49.9978 101.509 46.1725 97.2733L49.9398 91.8759C53.2619 95.5525 57.3354 97.3917 62.1637 97.3917C64.7521 97.3917 66.693 96.8527 67.988 95.7728C69.2813 94.693 69.9289 93.4146 69.9289 91.936C69.9289 90.4173 69.1547 89.2082 67.6115 88.3086C66.0665 87.4091 64.1926 86.6989 61.9913 86.1799C59.79 85.6609 57.5782 85.0418 55.3576 84.3207C53.1352 83.6014 51.2542 82.3831 49.7093 80.6623C48.1626 78.9451 47.3901 76.7272 47.3901 74.0066C47.3901 70.6506 48.694 67.8627 51.3017 65.6447C53.9094 63.4249 57.2967 62.3159 61.4687 62.3159C67.4179 62.3159 72.2463 64.1752 75.9538 67.8936L72.0721 73.1089C69.1371 70.0715 65.4102 68.551 60.8898 68.551C58.8803 68.551 57.2879 69.0026 56.1089 69.9022C54.9318 70.7999 54.3423 72.009 54.3423 73.5295C54.3423 74.5274 54.7593 75.3669 55.5881 76.048C56.4186 76.7272 57.4902 77.2771 58.8047 77.6959C60.1173 78.1148 61.576 78.5263 63.179 78.9251C64.7803 79.3239 66.3833 79.8137 67.988 80.3946C69.591 80.9737 71.048 81.6821 72.3624 82.5234C73.6751 83.361 74.7484 84.521 75.5772 85.9996C76.4077 87.4782 76.823 89.2373 76.823 91.2768C76.823 94.8732 75.5667 97.8323 73.0575 100.15C70.5465 102.47 66.8197 103.629 61.8752 103.629ZM98.4925 102.909H91.7128V69.0918H80.0079V62.9151H110.196V69.0918H98.4925V102.909ZM145.826 102.909H138.006L129.43 87.979H122.71V102.909H115.932V62.9151H132.907C136.692 62.9151 139.745 64.075 142.062 66.3931C144.378 68.7112 145.537 71.7304 145.537 75.447C145.537 78.8049 144.649 81.4927 142.872 83.5122C141.094 85.5298 138.932 86.759 136.382 87.1996L145.826 102.909ZM131.98 81.8023C133.912 81.8023 135.495 81.2232 136.731 80.0632C137.966 78.9051 138.585 77.3664 138.585 75.447C138.585 73.5295 137.966 71.989 136.731 70.8309C135.495 69.6709 133.912 69.0918 131.98 69.0918H122.71V81.8023H131.98ZM184.53 97.7832C180.821 101.68 176.089 103.629 170.335 103.629C164.58 103.629 159.848 101.68 156.141 97.7832C152.431 93.8845 150.579 88.9369 150.579 82.9422C150.579 76.9457 152.431 71.9981 156.141 68.103C159.848 64.2043 164.58 62.2559 170.335 62.2559C176.089 62.2559 180.821 64.2043 184.53 68.103C188.238 71.9981 190.092 76.9457 190.092 82.9422C190.092 88.9369 188.238 93.8845 184.53 97.7832ZM170.335 97.3917C174.159 97.3917 177.249 96.0241 179.605 93.2854C181.961 90.5466 183.14 87.0995 183.14 82.9422C183.14 78.7448 181.961 75.2886 179.605 72.5699C177.249 69.8512 174.159 68.4927 170.335 68.4927C166.473 68.4927 163.373 69.8512 161.036 72.5699C158.699 75.2886 157.531 78.7448 157.531 82.9422C157.531 87.1395 158.699 90.5976 161.036 93.3163C163.373 96.0332 166.473 97.3917 170.335 97.3917ZM212.05 102.909H205.272V86.3001L190.265 62.9151H198.03L208.69 80.0632L219.235 62.9151H226.998L212.05 86.3001V102.909Z" fill="white"/>
<path d="M138.485 149.427H133.922V147.087C132.3 149.006 130.04 149.966 127.142 149.966C125.231 149.966 123.537 149.328 122.059 148.055C120.581 146.781 119.842 145.02 119.842 142.771C119.842 140.462 120.576 138.708 122.038 137.51C123.5 136.31 125.202 135.711 127.142 135.711C130.127 135.711 132.386 136.64 133.922 138.499V135.261C133.922 134.001 133.473 133.012 132.574 132.293C131.677 131.574 130.489 131.215 129.011 131.215C126.666 131.215 124.593 132.127 122.798 133.956L120.929 130.674C123.305 128.336 126.245 127.167 129.75 127.167C132.328 127.167 134.429 127.797 136.051 129.055C137.674 130.315 138.485 132.308 138.485 135.035V149.427ZM128.925 146.728C131.212 146.728 132.879 145.979 133.922 144.481V141.198C132.879 139.699 131.212 138.947 128.925 138.947C127.621 138.947 126.549 139.307 125.708 140.027C124.869 140.746 124.45 141.691 124.45 142.862C124.45 144.029 124.869 144.967 125.708 145.672C126.549 146.375 127.621 146.728 128.925 146.728ZM151.564 149.966C147.797 149.966 144.798 148.84 142.567 146.593L144.654 143.175C145.435 144.015 146.493 144.736 147.827 145.335C149.159 145.934 150.477 146.233 151.78 146.233C153.112 146.233 154.133 145.963 154.844 145.424C155.553 144.883 155.907 144.18 155.907 143.31C155.907 142.531 155.474 141.924 154.605 141.489C153.735 141.054 152.678 140.71 151.432 140.455C150.186 140.2 148.94 139.885 147.696 139.51C146.451 139.136 145.393 138.47 144.524 137.51C143.655 136.55 143.22 135.307 143.22 133.777C143.22 131.918 143.957 130.352 145.435 129.079C146.913 127.804 148.926 127.167 151.476 127.167C154.691 127.167 157.415 128.187 159.646 130.224L157.733 133.553C157.066 132.772 156.183 132.144 155.081 131.663C153.982 131.182 152.794 130.944 151.52 130.944C150.332 130.944 149.384 131.191 148.673 131.687C147.964 132.18 147.608 132.817 147.608 133.597C147.608 134.198 147.92 134.684 148.543 135.059C149.166 135.434 149.949 135.711 150.888 135.891C151.83 136.072 152.852 136.317 153.954 136.632C155.053 136.947 156.074 137.315 157.015 137.734C157.958 138.155 158.74 138.836 159.363 139.781C159.985 140.726 160.297 141.871 160.297 143.221C160.297 145.2 159.53 146.819 157.994 148.077C156.459 149.337 154.314 149.966 151.564 149.966ZM172.074 149.966C168.307 149.966 165.308 148.84 163.077 146.593L165.164 143.175C165.947 144.015 167.003 144.736 168.337 145.335C169.669 145.934 170.986 146.233 172.29 146.233C173.622 146.233 174.645 145.963 175.354 145.424C176.063 144.883 176.418 144.18 176.418 143.31C176.418 142.531 175.984 141.924 175.115 141.489C174.245 141.054 173.188 140.71 171.942 140.455C170.696 140.2 169.452 139.885 168.206 139.51C166.961 139.136 165.903 138.47 165.034 137.51C164.165 136.55 163.73 135.307 163.73 133.777C163.73 131.918 164.469 130.352 165.947 129.079C167.423 127.804 169.436 127.167 171.986 127.167C175.201 127.167 177.925 128.187 180.156 130.224L178.243 133.553C177.578 132.772 176.693 132.144 175.593 131.663C174.492 131.182 173.304 130.944 172.03 130.944C170.842 130.944 169.894 131.191 169.183 131.687C168.474 132.18 168.118 132.817 168.118 133.597C168.118 134.198 168.43 134.684 169.053 135.059C169.676 135.434 170.459 135.711 171.4 135.891C172.341 136.072 173.362 136.317 174.463 136.632C175.563 136.947 176.586 137.315 177.527 137.734C178.468 138.155 179.25 138.836 179.873 139.781C180.497 140.726 180.807 141.871 180.807 143.221C180.807 145.2 180.04 146.819 178.504 148.077C176.969 149.337 174.824 149.966 172.074 149.966ZM189.978 149.427H185.413V127.706H189.978V149.427ZM203.057 149.966C199.292 149.966 196.291 148.84 194.06 146.593L196.147 143.175C196.93 144.015 197.986 144.736 199.32 145.335C200.652 145.934 201.97 146.233 203.273 146.233C204.607 146.233 205.628 145.963 206.337 145.424C207.046 144.883 207.402 144.18 207.402 143.31C207.402 142.531 206.967 141.924 206.098 141.489C205.228 141.054 204.171 140.71 202.925 140.455C201.681 140.2 200.435 139.885 199.189 139.51C197.944 139.136 196.886 138.47 196.017 137.51C195.148 136.55 194.715 135.307 194.715 133.777C194.715 131.918 195.452 130.352 196.93 129.079C198.406 127.804 200.419 127.167 202.969 127.167C206.184 127.167 208.908 128.187 211.139 130.224L209.226 133.553C208.561 132.772 207.676 132.144 206.576 131.663C205.475 131.182 204.287 130.944 203.013 130.944C201.825 130.944 200.877 131.191 200.166 131.687C199.457 132.18 199.101 132.817 199.101 133.597C199.101 134.198 199.413 134.684 200.036 135.059C200.659 135.434 201.442 135.711 202.383 135.891C203.325 136.072 204.345 136.317 205.447 136.632C206.546 136.947 207.569 137.315 208.51 137.734C209.451 138.155 210.233 138.836 210.856 139.781C211.48 140.726 211.79 141.871 211.79 143.221C211.79 145.2 211.023 146.819 209.487 148.077C207.952 149.337 205.807 149.966 203.057 149.966ZM222.698 149.966C220.929 149.966 219.59 149.485 218.679 148.527C217.766 147.567 217.31 146.189 217.31 144.39V131.843H213.833V127.706H217.31V121.77H221.873V127.706H226.131V131.843H221.873V143.221C221.873 144 222.045 144.621 222.393 145.085C222.742 145.552 223.233 145.783 223.871 145.783C224.799 145.783 225.478 145.528 225.913 145.02L227 148.573C226.043 149.501 224.609 149.966 222.698 149.966Z" fill="#E5866A"/>
<path d="M189.978 120.639H185.415V125.038H189.978V120.639Z" fill="#E5866A"/>
</g>
</g>
<defs>
<filter id="filter0_d" x="0" y="0" width="231" height="158" filterUnits="userSpaceOnUse" color-interpolation-filters="sRGB">
<feFlood flood-opacity="0" result="BackgroundImageFix"/>
<feColorMatrix in="SourceAlpha" type="matrix" values="0 0 0 0 0 0 0 0 0 0 0 0 0 0 0 0 0 0 127 0"/>
<feOffset dy="4"/>
<feGaussianBlur stdDeviation="2"/>
<feColorMatrix type="matrix" values="0 0 0 0 0 0 0 0 0 0 0 0 0 0 0 0 0 0 0.25 0"/>
<feBlend mode="normal" in2="BackgroundImageFix" result="effect1_dropShadow"/>
<feBlend mode="normal" in="SourceGraphic" in2="effect1_dropShadow" result="shape"/>
</filter>
<clipPath id="clip0">
<rect x="4" width="223" height="150" fill="white"/>
</clipPath>
</defs>
</svg>
