<svg width="80" height="71" viewBox="0 0 80 71" fill="none" xmlns="http://www.w3.org/2000/svg">
<path d="M41.6709 15.2827H32.2675C20.6841 15.2827 11.2939 24.6729 11.2939 36.2563V45.6596C11.2939 57.243 20.6841 66.6332 32.2675 66.6332H41.6709C53.2542 66.6332 62.6444 57.243 62.6444 45.6596V36.2563C62.6444 24.6729 53.2542 15.2827 41.6709 15.2827Z" fill="#444FD9"/>
<path d="M21.8624 35.4999C21.6505 34.5005 21.4893 33.4854 21.3821 32.461C21.2743 31.434 21.2197 30.4083 21.2197 29.3901C21.2197 21.2745 24.5095 13.9264 29.8275 8.60836C35.1461 3.29036 42.4942 0 50.6098 0C58.7253 0 66.0735 3.29036 71.3915 8.60836C76.7095 13.9264 79.9998 21.2745 79.9998 29.3901C79.9998 35.9444 77.828 42.1045 74.0806 47.0776C71.1984 50.9028 67.3813 54.027 62.9041 56.0866C61.622 56.6766 60.2846 57.1794 58.9003 57.5857C58.8413 57.6033 59.7448 56.2847 59.7448 56.2847C60.7674 55.9424 61.7605 55.5443 62.7204 55.0941C66.9512 53.1123 70.5576 50.121 73.2943 46.4839C76.9145 41.6794 79.013 35.7263 79.013 29.3901C79.013 21.5472 75.833 14.4461 70.6936 9.30618C65.5543 4.16624 58.4526 0.986858 50.6098 0.986858C42.767 0.986858 35.6658 4.16624 30.5259 9.30618C25.386 14.4461 22.2066 21.5472 22.2066 29.3901C22.2066 30.3913 22.258 31.3832 22.3608 32.3607C22.4636 33.3412 22.6191 34.3218 22.8267 35.2955L21.8624 35.4999Z" fill="#FF9F24"/>
<path fill-rule="evenodd" clip-rule="evenodd" d="M27.2596 27.7461L22.0325 35.0065L16.8154 27.7461H27.2596Z" fill="#FE5D19" stroke="#FE5D19" stroke-width="0.986858" stroke-miterlimit="22.9256" stroke-linecap="round" stroke-linejoin="round"/>
<path d="M13.5762 40.6089H25.5877" stroke="white" stroke-width="0.986858" stroke-miterlimit="22.9256" stroke-linecap="round"/>
<path fill-rule="evenodd" clip-rule="evenodd" d="M39.5128 45.106H11.2939V45.6596C11.2939 57.1959 20.7318 66.6338 32.2675 66.6338H38.104C38.9893 65.4149 39.5128 63.9177 39.5128 62.3045V45.106Z" fill="#FF9F24"/>
<path fill-rule="evenodd" clip-rule="evenodd" d="M25.5271 49.2808H22.8386C22.3778 49.2808 22.001 49.6576 22.001 50.1184V52.3285C22.001 52.7893 22.3778 53.1667 22.8386 53.1667H25.5271C25.9879 53.1667 26.3653 52.7893 26.3653 52.3285V50.1184C26.3653 49.6576 25.9879 49.2808 25.5271 49.2808Z" fill="#444FD9" stroke="#444FD9" stroke-width="0.789361" stroke-miterlimit="22.9256"/>
<path fill-rule="evenodd" clip-rule="evenodd" d="M33.5173 49.2744H30.8295C30.368 49.2744 29.9912 49.6519 29.9912 50.1127V52.3221C29.9912 52.7836 30.368 53.161 30.8295 53.161H33.5173C33.9788 53.161 34.3556 52.7836 34.3556 52.3221V50.1127C34.3556 49.6519 33.9788 49.2744 33.5173 49.2744Z" fill="#444FD9" stroke="#444FD9" stroke-width="0.789361" stroke-miterlimit="22.9256"/>
<path fill-rule="evenodd" clip-rule="evenodd" d="M33.4734 59.4795H30.7855C30.3241 59.4795 29.9473 59.8563 29.9473 60.3178V62.5272C29.9473 62.988 30.3241 63.3655 30.7855 63.3655H33.4734C33.9342 63.3655 34.3116 62.988 34.3116 62.5272V60.3178C34.3116 59.8563 33.9342 59.4795 33.4734 59.4795Z" fill="#444FD9" stroke="#444FD9" stroke-width="0.789361" stroke-miterlimit="22.9256"/>
<path fill-rule="evenodd" clip-rule="evenodd" d="M17.5193 59.4604H14.8308C14.37 59.4604 13.9932 59.8379 13.9932 60.2987V62.5082C13.9932 62.9696 14.37 63.3471 14.8308 63.3471H17.5193C17.9801 63.3471 18.3569 62.9696 18.3569 62.5082V60.2987C18.3569 59.8379 17.9801 59.4604 17.5193 59.4604Z" fill="#FF9F24" stroke="#FF9F24" stroke-width="0.789361" stroke-miterlimit="22.9256"/>
<path fill-rule="evenodd" clip-rule="evenodd" d="M25.6062 59.5254H22.9183C22.4569 59.5254 22.0801 59.9022 22.0801 60.3637V62.5731C22.0801 63.0339 22.4569 63.4114 22.9183 63.4114H25.6062C26.0676 63.4114 26.4444 63.0339 26.4444 62.5731V60.3637C26.4444 59.9022 26.0676 59.5254 25.6062 59.5254Z" fill="#444FD9" stroke="#444FD9" stroke-width="0.789361" stroke-miterlimit="22.9256"/>
<path fill-rule="evenodd" clip-rule="evenodd" d="M10.0183 59.4604H7.33045C6.869 59.4604 6.49219 59.8379 6.49219 60.2987V62.5082C6.49219 62.9696 6.869 63.3471 7.33045 63.3471H10.0183C10.4797 63.3471 10.8566 62.9696 10.8566 62.5082V60.2987C10.8566 59.8379 10.4797 59.4604 10.0183 59.4604Z" fill="#FF9F24" stroke="#FF9F24" stroke-width="0.789361" stroke-miterlimit="22.9256"/>
<path fill-rule="evenodd" clip-rule="evenodd" d="M10.0183 49.1973H7.33045C6.869 49.1973 6.49219 49.5741 6.49219 50.0349V52.245C6.49219 52.7058 6.869 53.0833 7.33045 53.0833H10.0183C10.4797 53.0833 10.8566 52.7058 10.8566 52.245V50.0349C10.8566 49.5741 10.4797 49.1973 10.0183 49.1973Z" fill="#FF9F24" stroke="#FF9F24" stroke-width="0.789361" stroke-miterlimit="22.9256"/>
<path fill-rule="evenodd" clip-rule="evenodd" d="M17.5193 49.1973H14.8308C14.37 49.1973 13.9932 49.5741 13.9932 50.0349V52.245C13.9932 52.7058 14.37 53.0833 14.8308 53.0833H17.5193C17.9801 53.0833 18.3569 52.7058 18.3569 52.245V50.0349C18.3569 49.5741 17.9801 49.1973 17.5193 49.1973Z" fill="white" stroke="white" stroke-width="0.789361" stroke-miterlimit="22.9256"/>
<path fill-rule="evenodd" clip-rule="evenodd" d="M1 45.1064H39.5132H1ZM8.39642 35.4077H32.1161C36.1846 35.4077 39.5132 38.7363 39.5132 42.8041V62.3049C39.5132 66.3734 36.1846 69.7013 32.1161 69.7013H8.39642C4.32861 69.7013 1 66.3734 1 62.3049V42.8041C1 38.7363 4.32861 35.4077 8.39642 35.4077Z" stroke="#FF9F24" stroke-width="0.986858" stroke-miterlimit="22.9256"/>
<path fill-rule="evenodd" clip-rule="evenodd" d="M16.1746 59.0713L17.4868 59.0826C17.9809 59.0863 18.5 59.3277 18.6912 59.9252C18.7583 60.134 18.7521 60.2807 18.7521 60.4814V61.5704V61.6663C18.7521 61.7184 16.1232 59.0713 16.1746 59.0713Z" fill="white"/>
</svg>
